Coordinates
version=1
nRows=9
nColumns=63
inDegrees=yes

Units are S.I. units (second, meters, Newtons, ...)
If the header above contains a line with 'inDegrees', this indicates whether rotational values are in degrees (yes) or radians (no).

endheader
time	pelvis_tilt	pelvis_list	pelvis_rotation	pelvis_tx	pelvis_ty	pelvis_tz	hip_flexion_r	hip_adduction_r	hip_rotation_r	knee_angle_r	knee_angle_r_beta	ankle_angle_r	subtalar_angle_r	mtp_angle_r	hip_flexion_l	hip_adduction_l	hip_rotation_l	knee_angle_l	knee_angle_l_beta	ankle_angle_l	subtalar_angle_l	mtp_angle_l	L5_S1_Flex_Ext	L5_S1_Lat_Bending	L5_S1_axial_rotation	L4_L5_Flex_Ext	L4_L5_Lat_Bending	L4_L5_axial_rotation	L3_L4_Flex_Ext	L3_L4_Lat_Bending	L3_L4_axial_rotation	L2_L3_Flex_Ext	L2_L3_Lat_Bending	L2_L3_axial_rotation	L1_L2_Flex_Ext	L1_L2_Lat_Bending	L1_L2_axial_rotation	L1_T12_Flex_Ext	L1_T12_Lat_Bending	L1_T12_axial_rotation	Abs_r3	Abs_r2	Abs_r1	Abs_t1	Abs_t2	neck_flexion	neck_bending	neck_rotation	arm_flex_r	arm_add_r	arm_rot_r	elbow_flex_r	pro_sup_r	wrist_flex_r	wrist_dev_r	arm_flex_l	arm_add_l	arm_rot_l	elbow_flex_l	pro_sup_l	wrist_flex_l	wrist_dev_l
      3.03389831	      2.71387562	     -4.97340603	    100.47811277	      0.12730621	      0.65400793	      0.81120082	      5.96723454	     -1.97277152	    -14.64932546	      6.38116725	      0.11137238	     28.94176802	     14.76555130	      0.00000000	      9.44544061	      2.84484827	      7.54222473	      7.30672620	      0.12752643	     27.97209881	     -1.73191287	      0.00000000	      0.64578331	     -0.31867362	     -0.60360719	      1.19928418	     -0.42383591	     -0.64133264	      1.06095739	     -0.77482304	     -0.64133264	      0.73806574	     -0.77482304	     -0.52815630	      0.59967438	     -0.64983924	     -0.49043085	      0.36900058	     -0.49362544	     -0.45270540	      4.61276558	     -3.60489971	     -3.35708213	      0.00000000	      0.00000000	     28.34106268	     -6.04483983	      8.73712242	     26.86499854	     -8.13463948	     84.16199165	     41.23135579	     77.31662666	     11.97541532	     10.90073137	     21.63718101	     -7.58142241	     65.75297089	     43.17023836	     88.67010508	     17.77928984	     24.78375603
      3.05084746	      2.65017303	     -5.05569418	    100.23695831	      0.12841017	      0.65415598	      0.81207194	      6.15978992	     -1.93683734	    -13.39754186	      6.36767892	      0.11113696	     28.66567930	     13.38850437	      0.00000000	      9.78501371	      2.79935156	      6.25049942	      7.55383695	      0.13183933	     28.40973195	     -0.56265414	      0.00000000	      0.64265310	     -0.32811110	     -0.54178265	      1.19347107	     -0.43638776	     -0.57564407	      1.05581477	     -0.79776933	     -0.57564407	      0.73448823	     -0.79776933	     -0.47405982	      0.59676767	     -0.66908416	     -0.44019841	      0.36721198	     -0.50824410	     -0.40633699	      4.59040681	     -3.71165840	     -3.01323258	      0.00000000	      0.00000000	     28.34099148	     -6.54543455	      8.42020134	     26.99547119	     -8.12248903	     85.02221848	     41.21657925	     74.45464199	     11.52060728	     10.87000909	     22.20445106	     -7.67927161	     67.22607891	     43.07073888	     88.57539070	     17.52978082	     24.22333421
      3.06779661	      2.32954659	     -5.25598070	     99.83296561	      0.12988035	      0.65421494	      0.81229920	      6.59761179	     -2.30079192	    -13.55862787	      6.78213056	      0.11837051	     28.92926775	     14.03558449	      0.00000000	      9.88470059	      3.00546323	      5.19795693	      7.23833963	      0.12633286	     28.48215294	      0.21267437	      0.00000000	      0.65896656	     -0.37997996	     -0.47541288	      1.22376680	     -0.50537335	     -0.50512618	      1.08261617	     -0.92388328	     -0.50512618	      0.75313288	     -0.92388328	     -0.41598627	      0.61191635	     -0.77485514	     -0.38627296	      0.37653349	     -0.58858896	     -0.35655966	      4.70693226	     -4.29840931	     -2.64410381	      0.00000000	      0.00000000	     28.33842532	     -5.93791355	      7.99141600	     26.54589402	     -7.96142090	     84.60799338	     41.21885229	     72.23810720	     10.40362074	      9.86923499	     21.80607162	     -7.89522758	     66.11974442	     43.07560273	     88.56105261	     19.29165551	     24.95894616
      3.08474576	      2.26472839	     -5.31329016	     99.71968046	      0.13033547	      0.65436859	      0.81262705	      6.77085693	     -2.41878737	    -14.04670194	      6.96425370	      0.12154916	     29.02317481	     14.83092412	      0.00000000	     10.09453244	      3.01640966	      4.38823972	      7.34527150	      0.12819917	     28.83240437	      1.02139025	      0.00000000	      0.65993978	     -0.38354390	     -0.49464211	      1.22557417	     -0.51011339	     -0.52555724	      1.08421507	     -0.93254865	     -0.52555724	      0.75424518	     -0.93254865	     -0.43281185	      0.61282008	     -0.78212273	     -0.40189671	      0.37708959	     -0.59410951	     -0.37098158	      4.71388386	     -4.33872534	     -2.75105102	      0.00000000	      0.00000000	     28.34027063	     -5.43105779	      8.30383328	     26.40779985	     -7.95756754	     85.28783652	     41.40843684	     64.60796509	      8.48921567	      9.07092854	     20.78212556	     -8.02790668	     63.93063109	     43.23022853	     88.37476134	     19.50094603	     25.84543855
      3.10169492	      2.20756922	     -5.20482174	     99.77315071	      0.13044285	      0.65486178	      0.81255883	      6.63173500	     -2.45068476	    -14.12708411	      6.95867008	      0.12145170	     28.99359233	     14.81988860	      0.00000000	      9.99100445	      3.05400919	      4.44444315	      7.24724288	      0.12648825	     28.88677040	      1.04310421	      0.00000000	      0.63791430	     -0.38233141	     -0.48004056	      1.18467064	     -0.50850077	     -0.51004310	      1.04802940	     -0.92960059	     -0.51004310	      0.72907225	     -0.92960059	     -0.42003549	      0.59236722	     -0.77965021	     -0.39003296	      0.36450423	     -0.59223135	     -0.36003042	      4.55655804	     -4.32500936	     -2.66984158	      0.00000000	      0.00000000	     28.34017271	     -4.86920012	      8.80104159	     25.33497896	     -8.14073603	     82.97544180	     41.59764416	     62.52642601	      7.02055244	      6.50732519	     19.88830333	     -8.30569826	     62.64363184	     43.42140407	     87.79103834	     18.57153080	     24.76392294
      3.11864407	      2.23259422	     -5.17309540	     99.68052849	      0.12994544	      0.65537504	      0.81228211	      6.51875011	     -2.43954749	    -14.16891664	      6.79717953	      0.11863316	     28.82341347	     15.07591050	      0.00000000	      9.78270749	      3.08042882	      5.02121385	      6.81591705	      0.11896019	     28.65368391	      0.21777718	      0.00000000	      0.64712547	     -0.34480222	     -0.56742723	      1.20177671	     -0.45858695	     -0.60289143	      1.06316243	     -0.83835211	     -0.60289143	      0.73959970	     -0.83835211	     -0.49649883	      0.60092071	     -0.70312068	     -0.46103462	      0.36976749	     -0.53409864	     -0.42557042	      4.62235250	     -3.90047166	     -3.15586002	      0.00000000	      0.00000000	     28.32462973	     -4.01597441	     11.07575834	     26.05538380	     -7.94870134	     86.96141253	     41.69044850	     48.29896218	      3.93855174	      3.47587624	     17.47198041	     -8.66226453	     58.34109571	     43.97846042	     86.58995694	     15.31666076	     22.97635322
      3.13559322	      2.27835045	     -4.98974371	     99.59646298	      0.12942513	      0.65603029	      0.81161772	      6.22631992	     -2.37239179	    -14.14261530	      6.64346790	      0.11595039	     28.69206955	     15.22691426	      0.00000000	      9.35904049	      3.05291873	      5.81564176	      6.33649160	      0.11059264	     28.49580953	     -0.74406616	      0.00000000	      0.63394039	     -0.30642092	     -0.58431479	      1.17729070	     -0.40753982	     -0.62083447	      1.04150067	     -0.74503183	     -0.62083447	      0.72453047	     -0.74503183	     -0.51127544	      0.58867705	     -0.62485354	     -0.47475577	      0.36223354	     -0.47464601	     -0.43823610	      4.52817281	     -3.46629473	     -3.24978359	      0.00000000	      0.00000000	     28.30997411	     -3.66945979	     12.70488424	     25.76694858	     -7.85861526	     87.16213973	     41.53303827	     42.86233694	      2.77170233	      0.27817218	     15.25880438	     -8.91423749	     55.04811029	     44.30188083	     81.54928784	     10.94430288	     19.50571461
      3.15254237	      2.19377770	     -4.92379884	     99.54306854	      0.12915123	      0.65644002	      0.81052421	      5.94447431	     -2.41809763	    -14.08529589	      6.35920118	      0.11098900	     28.61506878	     15.29699723	      0.00000000	      8.94176540	      3.12791643	      5.99491749	      5.72059911	      0.09984329	     28.19091365	     -0.91173449	      0.00000000	      0.64226932	     -0.30446107	     -0.53683042	      1.19275835	     -0.40493323	     -0.57038233	      1.05518427	     -0.74026665	     -0.57038233	      0.73404961	     -0.74026665	     -0.46972662	      0.59641129	     -0.62085702	     -0.43617472	      0.36699269	     -0.47161020	     -0.40262282	      4.58766553	     -3.44412454	     -2.98568977	      0.00000000	      0.00000000	     28.29329446	     -3.62145197	     12.76517644	     24.65758501	     -7.77781439	     85.05789072	     41.24014787	     40.17065306	      2.50773165	     -1.89259554	     13.21056078	     -8.83714491	     51.69575525	     44.14751378	     77.80577355	      8.69711482	     14.75638959
      3.16949153	      2.19234882	     -4.52467856	     99.48127517	      0.12897048	      0.65708578	      0.80992782	      5.42564116	     -2.33092559	    -13.83101131	      6.22667112	      0.10867591	     28.52178922	     15.11788288	      0.00000000	      8.21451434	      3.10129250	      7.10252616	      5.12699220	      0.08948289	     27.85635205	     -2.38169338	      0.00000000	      0.59522504	     -0.27523262	     -0.54310923	      1.10539243	     -0.36605939	     -0.57705356	      0.97789522	     -0.66920060	     -0.57705356	      0.68028270	     -0.66920060	     -0.47522058	      0.55272598	     -0.56125437	     -0.44127625	      0.34011159	     -0.42633533	     -0.40733192	      4.25163296	     -3.11348649	     -3.02061061	      0.00000000	      0.00000000	     28.26863212	     -3.84794053	     13.83370596	     25.32856603	     -7.45878932	     88.19219622	     40.63969330	     31.06379790	      3.15390292	     -4.02404247	     13.26990721	     -9.62774266	     56.55149585	     43.85147721	     57.57955281	      2.26721554	      7.74040902
